# xmcd
#
# Track frame offsets: 
#        150
#        14968
#        26712
#        40873
#        50928
#        58867
#        71763
#        89630
#        109512
#        127000
#        154066
#        180182
#        198209
#        214511
#        242798
#        261982
#        288203
#        310549
#        326074
#
# Disc length: 4542 seconds
#
# Revision: 0
# Processed by: cddbd v1.5.2PL0 Copyright (c) Steve Scherf et al.
# Submitted via: ExactAudioCopy v0.99pb4
#
DISCID=1b11bc13
DTITLE=Billie Holiday - Une anthologie 1947,1956 CD2
DYEAR=2007
DGENRE=Blues
TTITLE0=What A Little Moonlight Can Do
TTITLE1=Love Me Or Leave Me
TTITLE2=Willow Weep For Me
TTITLE3=Too Marvelous For Words
TTITLE4=All Of Me
TTITLE5=Lover Man
TTITLE6=I've Got My Love To Keep Me Warm
TTITLE7=Please Don't Talk About Me When I'm Gone
TTITLE8=Nice Work If You Can Get It
TTITLE9=I Got A Right To Sing The Blues
TTITLE10=I Get A Kick Out Of You
TTITLE11=God Bless The Child
TTITLE12=Cheek To Cheek
TTITLE13=Ill Wind
TTITLE14=Do Nothing Till You Hear From Me
TTITLE15=All Or Nothing At All
TTITLE16=Sophisticated Lady
TTITLE17=Billie's Blues (I Love My Man)
TTITLE18=I Cried For You
EXTD=
EXTT0=
EXTT1=
EXTT2=
EXTT3=
EXTT4=
EXTT5=
EXTT6=
EXTT7=
EXTT8=
EXTT9=
EXTT10=
EXTT11=
EXTT12=
EXTT13=
EXTT14=
EXTT15=
EXTT16=
EXTT17=
EXTT18=
PLAYORDER=
